#N canvas 0 25 1280 673 12;
#X obj 241 132 bng 19 250 50 0 empty empty empty 0 -10 0 12 #fcfcfc #000000 #000000;
#X obj 369 255 dac~;
#X obj 367 170 *~;
#X obj 409 172 *~;
#X obj 392 124 adc~;
#X obj 363 98 osc~ 440;
#X obj 375 217 *~;
#X floatatom 462 188 5 0 0 0 - - - 0;
#X obj 495 152 r volume;
#X connect 2 0 6 0;
#X connect 3 0 6 0;
#X connect 4 0 2 1;
#X connect 4 1 3 1;
#X connect 5 0 2 0;
#X connect 5 0 3 0;
#X connect 6 0 1 0;
#X connect 6 0 1 1;
#X connect 7 0 6 1;
#X connect 8 0 7 0;
