#N canvas 0 28 1280 673 12;
#X obj 735 171 soundfiler;
#X floatatom 735 210 9 0 0 0 - - - 0;
#X obj 750 518 tabread4~ audioData;
#X obj 64 252 *~;
#X obj 57 496 dac~;
#X obj 750 487 vline~;
#X msg 750 438 \$1 \, \$2 \$3;
#X obj 750 392 pack f f f;
#X obj 783 344 r end;
#X obj 735 247 s end;
#X obj 873 230 r end;
#X floatatom 871 376 8 0 0 0 - - - 0;
#X obj 962 232 r clipSpeed;
#X floatatom 963 292 5 0 0 0 - - - 0;
#X obj 109 188 r clipVolume;
#X obj 735 74 r clipLocation;
#X msg 750 344 1;
#X obj 871 293 / 44.1;
#X obj 871 331 /;
#X obj 112 224 hsl 162 19 0 1 0 0 empty empty empty -2 -10 0 12 #fcfcfc #000000 #000000 0 1;
#X obj 64 418 lop~;
#X obj 132 313 mtof;
#X obj 135 278 hsl 162 19 0 127 0 0 empty empty empty -2 -10 0 12 #fcfcfc #000000 #000000 0 1;
#X obj 63 332 hip~;
#X obj 133 401 mtof;
#X obj 136 365 hsl 162 19 0 127 0 0 empty empty empty -2 -10 0 12 #fcfcfc #000000 #000000 0 1;
#X obj 132 246 r clipHighPass;
#X obj 133 336 r clipLowPass;
#X obj 63 192 +~;
#X floatatom 81 155 5 0 0 0 - - - 0;
#X obj 120 136 r clipFreq;
#N canvas 156 156 450 250 (subpatch) 0;
#X array audioData 18278 float 2;
#X coords 0 1 18278 -1 200 140 1;
#X restore 1012 35 graph;
#X obj 660 74 openpanel;
#X obj 659 48 bng 19 250 50 0 empty empty empty 0 -10 0 12 #fcfcfc #000000 #000000;
#X msg 735 135 read -ascii -resize \$1 audioData;
#X obj 735 105 list;
#X obj 55 109 adc~;
#X connect 0 0 1 0;
#X connect 1 0 9 0;
#X connect 3 0 23 0;
#X connect 5 0 2 0;
#X connect 6 0 5 0;
#X connect 7 0 6 0;
#X connect 8 0 7 1;
#X connect 10 0 17 0;
#X connect 11 0 7 2;
#X connect 11 0 16 0;
#X connect 12 0 13 0;
#X connect 13 0 18 1;
#X connect 14 0 19 0;
#X connect 15 0 35 0;
#X connect 16 0 7 0;
#X connect 17 0 18 0;
#X connect 18 0 11 0;
#X connect 19 0 3 1;
#X connect 20 0 4 1;
#X connect 20 0 4 0;
#X connect 21 0 23 1;
#X connect 22 0 21 0;
#X connect 23 0 20 0;
#X connect 24 0 20 1;
#X connect 25 0 24 0;
#X connect 26 0 22 0;
#X connect 27 0 25 0;
#X connect 28 0 3 0;
#X connect 29 0 28 1;
#X connect 30 0 29 0;
#X connect 32 0 35 0;
#X connect 33 0 32 0;
#X connect 34 0 0 0;
#X connect 36 0 28 0;
#X connect 36 1 28 0;
